<svg width="514" height="135" viewBox="0 0 514 135" fill="none" xmlns="http://www.w3.org/2000/svg">
<path d="M50.6138 52.1587L47.6593 74.8314L57.8455 52.1587H79.0707C81.5155 52.1587 82.9737 54.8833 81.6176 56.9175L30.5483 133.521C28.7491 136.22 24.5387 134.634 24.9674 131.419L35.1812 54.815C35.384 53.2943 36.6812 52.1587 38.2153 52.1587H50.6138Z" fill="white"/>
<path d="M46.9656 80.1649C46.7669 81.6895 45.4679 82.8302 43.9303 82.8302H3.06606C0.624711 82.8302 -0.834177 80.1123 0.515047 78.0776L51.3758 1.37919C53.1679 -1.32337 57.3811 0.250844 56.962 3.46642L46.9656 80.1649Z" fill="white"/>
<path d="M384.91 38.3089V45.2651L385.175 45.1016L386.804 47.7404L384.929 48.8983L384.915 48.8756V57.6932L385.358 57.8452L384.915 59.1356V62.2324L384.91 62.2511L384.915 106.383H368.275V38.3089H384.91Z" fill="white"/>
<path fill-rule="evenodd" clip-rule="evenodd" d="M150.499 106.287C142.385 106.287 135.719 105.451 130.499 103.779C125.28 102.107 121.223 99.8036 118.329 96.8679C115.434 93.9322 113.395 90.5072 112.212 86.593C111.071 82.6787 110.5 78.4994 110.5 74.0551V45.7989C110.5 41.2322 111.071 36.9714 112.212 33.0163C113.354 29.0205 115.372 25.514 118.267 22.4967C121.162 19.4795 125.219 17.135 130.438 15.4633C135.657 13.7508 142.344 12.8945 150.499 12.8945C158.287 12.8945 164.688 13.7916 169.703 15.5856C174.759 17.3796 178.694 19.8464 181.507 22.986C184.362 26.0848 186.339 29.6729 187.44 33.7503C188.582 37.8276 189.152 42.1496 189.152 46.7163V73.0765C189.152 77.5208 188.582 81.7409 187.44 85.7367C186.298 89.6918 184.3 93.2187 181.446 96.3175C178.857 99.1699 175.334 101.469 170.879 103.216L183.078 119.824H164.064L155.207 106.171C153.699 106.248 152.129 106.287 150.499 106.287ZM150.499 92.0363C157.349 92.0363 162.466 90.915 165.85 88.6724C169.234 86.4299 170.927 82.2302 170.927 76.0734V43.3525C170.927 37.2772 169.214 33.0571 165.789 30.6922C162.405 28.3274 157.308 27.1449 150.499 27.1449C143.771 27.1449 138.45 28.307 134.536 30.6311C130.663 32.9144 128.726 37.1549 128.726 43.3525V76.0734C128.726 82.271 130.663 86.491 134.536 88.7336C138.41 90.9354 143.731 92.0363 150.499 92.0363Z" fill="white"/>
<path fill-rule="evenodd" clip-rule="evenodd" d="M212.73 106.355C207.103 106.355 202.516 104.724 198.969 101.462C195.462 98.2002 193.709 93.8578 193.709 88.4349C193.709 85.3361 194.341 82.5838 195.605 80.1782C196.869 77.7726 199.172 75.5504 202.516 73.5117C205.859 71.4322 210.65 69.4139 216.889 67.4568C221.985 65.8259 225.736 64.3172 228.142 62.9309C230.589 61.5446 231.812 59.7098 231.812 57.4265C231.812 54.7762 231.017 52.7987 229.426 51.4939C227.877 50.1484 225.227 49.4756 221.476 49.4756C217.317 49.4756 214.487 49.8467 211.855 52.8315C210.195 54.7143 209.372 56.2326 209.132 58.7312C209.058 59.5079 208.981 60.7292 208.981 60.7292H193.709V58.398C193.709 52.0373 197.786 47.335 202.027 43.543C206.267 39.7511 212.872 37.8551 221.843 37.8551C228.407 37.8551 233.606 38.7725 237.439 40.6073C241.271 42.4422 244.023 45.0313 245.695 48.3747C247.367 51.6774 248.203 55.5917 248.203 60.1175V86.1108C248.203 89.0873 249.304 91.9822 249.304 91.9822C249.304 91.9822 250.661 95.1888 252.7 95.1888V106.383H248.918C244.351 106.383 241.251 104.806 238.723 103.542C236.195 102.278 234.34 100.32 233.157 97.6701C231.404 99.9942 228.754 102.033 225.206 103.786C221.7 105.499 217.541 106.355 212.73 106.355ZM218.36 95.1888C220.399 95.1888 222.719 94.714 225.451 93.5724C228.183 92.4307 230.303 90.6774 231.812 88.3126V71.6769C230.711 72.5739 228.958 73.5729 226.552 74.6738C224.146 75.7339 221.557 76.7736 218.785 77.7929C215.156 79.1385 212.77 80.6267 211.629 82.2577C210.487 83.8886 209.916 85.6419 209.916 87.5175C209.916 90.1678 210.691 92.1249 212.24 93.3889C213.79 94.6529 215.873 95.1888 218.36 95.1888Z" fill="white"/>
<path d="M266.012 49.5034V84.2969C266.012 89.9237 266.84 94.3807 268.675 97.6019C270.51 100.782 273.446 103.025 277.482 104.33C281.519 105.634 286.788 106.383 293.393 106.383H298.083V95.1888H294.301C289.286 95.1888 286.982 93.1575 285.188 91.6081C283.435 90.018 282.558 87.1842 282.558 83.1068V49.5034H298.083V38.3089H275.996L282.652 29.6862V18.643H267.827L266.466 38.3089H257.238V49.5034H266.012Z" fill="white"/>
<path fill-rule="evenodd" clip-rule="evenodd" d="M330.91 106.383C320.553 106.383 313.275 104.37 308.953 100.538C304.631 96.7048 302.47 91.5266 302.47 85.0028V59.1319C302.47 52.445 304.957 47.226 309.931 43.4748C314.946 39.6828 321.899 38.3089 330.91 38.3089C339.88 38.3089 346.933 39.6828 351.948 43.4748C356.964 47.226 359.501 52.4982 359.501 59.1851V84.902C359.501 89.224 358.574 93.0964 356.78 96.3175C354.986 99.4978 352.01 101.965 347.851 103.718C343.733 105.43 338.045 106.383 330.91 106.383ZM330.91 95.1888C334.457 95.1888 337.372 94.0749 339.533 92.7702C341.735 91.4246 342.836 89.0802 342.836 85.7367V58.398C342.836 55.0545 341.796 52.7304 339.716 51.4257C337.637 50.0801 334.661 49.5034 330.91 49.5034C327.321 49.5034 324.508 50.0801 322.347 51.4257C320.186 52.7304 319.105 55.0545 319.105 58.398V85.7367C319.105 89.0802 320.125 91.4246 322.163 92.7702C324.202 94.0749 327.077 95.1888 330.91 95.1888Z" fill="white"/>
<path d="M409.724 95.1888L436.047 49.5034H409.724V38.3089H453.292V50.8649L427.273 95.1888H453.292V106.383H409.724V95.1888Z" fill="white"/>
<path fill-rule="evenodd" clip-rule="evenodd" d="M457.538 59.2258V84.8521C457.538 90.4789 458.761 94.8824 461.208 98.0628C463.695 101.243 467.079 103.506 471.36 104.852C475.642 106.156 480.414 106.383 485.755 106.383C495.052 106.383 502.022 105.239 506.589 102.099C511.156 98.9598 513.5 93.3658 513.5 85.2519H498.07C498.07 89.2885 497.211 91.9467 495.58 93.2923C493.99 94.597 490.939 95.1888 486.209 95.1888C482.254 95.1888 479.169 94.7601 477.171 93.7815C475.173 92.7622 474.174 90.3158 474.174 86.4423L474.168 75.8727H513.5V59.8375C513.5 53.2321 511.359 47.9927 507.078 44.1192C502.838 40.2457 495.662 38.3089 485.55 38.3089C477.028 38.3089 470.219 40.1234 465.122 43.7522C460.066 47.3811 457.538 52.539 457.538 59.2258ZM497.767 57.7196L497.773 65.5865H474.174V58.1861C474.174 54.6796 475.495 51.9947 477.738 51.0162C480.021 49.9968 482.563 49.5034 485.907 49.5034C488.149 49.5034 490.204 49.7823 491.958 50.1085C493.752 50.3939 495.172 51.4177 496.192 52.5593C497.252 53.6602 497.767 55.2732 497.767 57.7196Z" fill="white"/>
<path d="M312.303 29.6862L325.046 12.8945H337.156L349.899 29.6862H338.951L331.101 23.9646L323.25 29.6862H312.303Z" fill="white"/>
<path d="M403.371 38.4285C401.732 38.5453 400.033 38.7737 398.076 39.2166C394.906 39.9344 393.516 40.3578 390.815 41.637C388.58 42.6953 386.767 43.9661 385.314 44.9853C385.178 45.0807 385.045 45.1738 384.915 45.2644V59.2286C389.801 54.3335 396.21 50.9593 403.371 49.8771V38.4285Z" fill="white"/>
</svg>
